# xmcd
#
# Track frame offsets: 
#        150
#        16137
#        34095
#        53917
#        70451
#        87739
#        103455
#        119843
#        137981
#        153619
#        171248
#        187882
#        204946
#        223486
#        238101
#        260744
#        278649
#        295401
#
# Disc length: 4180 seconds
#
# Revision: 5
# Processed by: cddbd v1.5.2PL0 Copyright (c) Steve Scherf et al.
# Submitted via: ExactAudioCopy v1.0b3
#
DISCID=29105212
DTITLE=Enrique Iglesias - Greatest Hits (Deluxe Version)
DYEAR=2008
DGENRE=Pop
TTITLE0=Bailamos
TTITLE1=Away (feat. Sean Garrett)
TTITLE2=Hero
TTITLE3=Be With You
TTITLE4=Takin' Back My Love (feat. Ciara)
TTITLE5=Rhythm Divine
TTITLE6=Do You Know? (The Ping Pong Song)
TTITLE7=Tired Of Being Sorry
TTITLE8=Escape
TTITLE9=Could I Have This Kiss Forever (Whitney Houston And Enrique Ig
TTITLE9=lesias)
TTITLE10=Not In Love (feat. Kelis)
TTITLE11=Don't Turn Off The Lights
TTITLE12=Love To See You Cry
TTITLE13=Maybe
TTITLE14=Addicted
TTITLE15=Somebody's Me
TTITLE16=Can You Hear Me
TTITLE17=Miss You (Nadiya And Enrique Iglesias)
EXTD=
EXTT0=
EXTT1=
EXTT2=
EXTT3=
EXTT4=
EXTT5=
EXTT6=
EXTT7=
EXTT8=
EXTT9=
EXTT10=
EXTT11=
EXTT12=
EXTT13=
EXTT14=
EXTT15=
EXTT16=
EXTT17=
PLAYORDER=
